<svg width="200" height="25" viewBox="0 0 200 25" fill="none" xmlns="http://www.w3.org/2000/svg">
<path d="M18.1132 14.9937H4.72956V11.6729H21.9874C21.5346 10.2641 20.0755 8.95595 17.5094 8.95595H4.98113C2.11321 8.95595 0.45283 10.0126 0.45283 12.327V14.7924C0.45283 16.805 2.16352 17.9622 4.67925 17.9622H18.2138V21.4842H0C0.45283 23.3962 1.91195 24.4025 4.5283 24.4025H18.1635C21.0314 24.4025 22.4402 23.2956 22.4402 20.9308V18.4654C22.4402 16.3019 20.7799 15.1446 18.1132 14.9937V14.9937ZM45.434 9.00626H28.9308V24.4528H33.6101V18.5157H45.7862C49.1572 18.5157 51.0189 17.3585 51.0189 14.6415V12.9308C50.9686 10.4151 48.8553 9.00626 45.434 9.00626V9.00626ZM46.9434 13.9371C46.9434 15.044 46.7421 15.6478 44.9308 15.6478H33.6101L33.6604 11.6226H44.7296C46.7421 11.6226 46.9937 12.2264 46.9937 13.283V13.9371H46.9434ZM66.566 18.4151H56.6038L54.1384 21.0314H68.5283L70.9937 24.4528H76.5283L64.6038 8.35217L61.7862 11.8239L66.566 18.4151ZM85.4843 11.6729H102.994C102.541 9.86161 100.78 8.95595 98.2641 8.95595H85.1824C82.9182 8.95595 80.7547 9.86161 80.7547 12.327V20.9811C80.7547 23.4465 82.9182 24.3522 85.1824 24.3522H98.4151C101.434 24.3522 102.491 23.4968 102.994 21.4339H85.4843V11.6729ZM123.522 16.805V14.1887H109.384V24.4528H130.264V21.5346H114.113V16.805H123.522ZM109.887 9.00626H130.969V11.7232H109.887V9.00626ZM143.95 9.00626H136.604L145.258 15.3459C146.516 14.4905 147.975 13.5849 149.283 12.8302L143.95 9.00626ZM154.616 16.9056C153.358 17.761 152.101 18.717 150.893 19.6226L157.434 24.4025H164.83L154.616 16.9056Z" fill="white"/>
<path d="M200 0C159.748 2.31447 141.132 19.522 136.956 23.5975L136.101 24.4025H143.547C163.673 4.22642 192.604 0.654088 200 0Z" fill="white"/>
</svg>
